HIERARCHY
ROOT Hips
{
    OFFSET 0.000 95.729 0.000
    CHANNELS 6 Xposition Yposition Zposition Yrotation Xrotation Zrotation
    JOINT RightUpLeg
    {
        OFFSET -9.625 -1.639 0.000
        CHANNELS 6 Xposition Yposition Zposition Yrotation Xrotation Zrotation
        JOINT RightLeg
        {
            OFFSET 0.000 -41.481 0.000
            CHANNELS 6 Xposition Yposition Zposition Yrotation Xrotation Zrotation
            JOINT RightFoot
            {
                OFFSET 0.000 -43.120 0.000
                CHANNELS 6 Xposition Yposition Zposition Yrotation Xrotation Zrotation
                End Site
                {
                    OFFSET 0.000 -7.850 17.850
                }
            }
        }
    }
    JOINT LeftUpLeg
    {
        OFFSET 9.625 -1.639 0.000
        CHANNELS 6 Xposition Yposition Zposition Yrotation Xrotation Zrotation
        JOINT LeftLeg
        {
            OFFSET 0.000 -43.120 0.000
            CHANNELS 6 Xposition Yposition Zposition Yrotation Xrotation Zrotation
            JOINT LeftFoot
            {
                OFFSET 0.000 -43.120 0.000
                CHANNELS 6 Xposition Yposition Zposition Yrotation Xrotation Zrotation
                End Site
                {
                    OFFSET 0.000 -7.850 17.850
                }
            }
        }
    }
    JOINT Spine
    {
        OFFSET 0.000 16.395 0.000
        CHANNELS 6 Xposition Yposition Zposition Yrotation Xrotation Zrotation
        JOINT Spine1
        {
            OFFSET 0.000 10.023 0.000
            CHANNELS 6 Xposition Yposition Zposition Yrotation Xrotation Zrotation
            JOINT Spine2
            {
                OFFSET 0.000 10.437 0.000
                CHANNELS 6 Xposition Yposition Zposition Yrotation Xrotation Zrotation
                JOINT Spine3
                {
                    OFFSET 0.000 10.023 0.000
                    CHANNELS 6 Xposition Yposition Zposition Yrotation Xrotation Zrotation
                    JOINT Neck
                    {
                        OFFSET 0.000 10.713 0.000
                        CHANNELS 6 Xposition Yposition Zposition Yrotation Xrotation Zrotation
                        JOINT Head
                        {
                            OFFSET 0.000 9.720 0.000
                            CHANNELS 6 Xposition Yposition Zposition Yrotation Xrotation Zrotation
                            End Site
                            {
                                OFFSET 0.000 16.450 0.000
                            }
                        }
                    }
                    JOINT RightShoulder
                    {
                        OFFSET -3.275 7.142 0.000
                        CHANNELS 6 Xposition Yposition Zposition Yrotation Xrotation Zrotation
                        JOINT RightArm
                        {
                            OFFSET -13.100 0.000 0.000
                            CHANNELS 6 Xposition Yposition Zposition Yrotation Xrotation Zrotation
                            JOINT RightForeArm
                            {
                                OFFSET -27.250 0.000 0.000
                                CHANNELS 6 Xposition Yposition Zposition Yrotation Xrotation Zrotation
                                JOINT RightHand
                                {
                                    OFFSET -26.750 0.000 0.000
                                    CHANNELS 6 Xposition Yposition Zposition Yrotation Xrotation Zrotation
                                    JOINT RightHandThumb1
                                    {
                                        OFFSET -2.560 0.196 3.210
                                        CHANNELS 6 Xposition Yposition Zposition Yrotation Xrotation Zrotation
                                        JOINT RightHandThumb2
                                        {
                                            OFFSET -3.788 0.000 0.000
                                            CHANNELS 6 Xposition Yposition Zposition Yrotation Xrotation Zrotation
                                            JOINT RightHandThumb3
                                            {
                                                OFFSET -2.631 0.000 0.000
                                                CHANNELS 6 Xposition Yposition Zposition Yrotation Xrotation Zrotation
                                                End Site
                                                {
                                                    OFFSET -2.256 0.000 0.000
                                                }
                                            }
                                        }
                                    }
                                    JOINT RightInHandIndex
                                    {
                                        OFFSET -3.316 0.523 2.035
                                        CHANNELS 6 Xposition Yposition Zposition Yrotation Xrotation Zrotation
                                        JOINT RightHandIndex1
                                        {
                                            OFFSET -5.366 -0.094 1.028
                                            CHANNELS 6 Xposition Yposition Zposition Yrotation Xrotation Zrotation
                                            JOINT RightHandIndex2
                                            {
                                                OFFSET -3.723 0.000 0.000
                                                CHANNELS 6 Xposition Yposition Zposition Yrotation Xrotation Zrotation
                                                JOINT RightHandIndex3
                                                {
                                                    OFFSET -2.111 0.000 0.000
                                                    CHANNELS 6 Xposition Yposition Zposition Yrotation Xrotation Zrotation
                                                    End Site
                                                    {
                                                        OFFSET -1.857 0.000 0.000
                                                    }
                                                }
                                            }
                                        }
                                    }
                                    JOINT RightInHandMiddle
                                    {
                                        OFFSET -3.479 0.532 0.778
                                        CHANNELS 6 Xposition Yposition Zposition Yrotation Xrotation Zrotation
                                        JOINT RightHandMiddle1
                                        {
                                            OFFSET -5.322 -0.086 0.323
                                            CHANNELS 6 Xposition Yposition Zposition Yrotation Xrotation Zrotation
                                            JOINT RightHandMiddle2
                                            {
                                                OFFSET -4.062 0.000 0.000
                                                CHANNELS 6 Xposition Yposition Zposition Yrotation Xrotation Zrotation
                                                JOINT RightHandMiddle3
                                                {
                                                    OFFSET -2.547 0.000 0.000
                                                    CHANNELS 6 Xposition Yposition Zposition Yrotation Xrotation Zrotation
                                                    End Site
                                                    {
                                                        OFFSET -2.031 0.000 0.000
                                                    }
                                                }
                                            }
                                        }
                                    }
                                    JOINT RightInHandRing
                                    {
                                        OFFSET -3.461 0.553 -0.133
                                        CHANNELS 6 Xposition Yposition Zposition Yrotation Xrotation Zrotation
                                        JOINT RightHandRing1
                                        {
                                            OFFSET -4.767 -0.023 -0.493
                                            CHANNELS 6 Xposition Yposition Zposition Yrotation Xrotation Zrotation
                                            JOINT RightHandRing2
                                            {
                                                OFFSET -3.541 0.000 0.000
                                                CHANNELS 6 Xposition Yposition Zposition Yrotation Xrotation Zrotation
                                                JOINT RightHandRing3
                                                {
                                                    OFFSET -2.456 0.000 0.000
                                                    CHANNELS 6 Xposition Yposition Zposition Yrotation Xrotation Zrotation
                                                    End Site
                                                    {
                                                        OFFSET -1.910 0.000 0.000
                                                    }
                                                }
                                            }
                                        }
                                    }
                                    JOINT RightInHandPinky
                                    {
                                        OFFSET -3.251 0.483 -1.236
                                        CHANNELS 6 Xposition Yposition Zposition Yrotation Xrotation Zrotation
                                        JOINT RightHandPinky1
                                        {
                                            OFFSET -4.259 -0.023 -1.122
                                            CHANNELS 6 Xposition Yposition Zposition Yrotation Xrotation Zrotation
                                            JOINT RightHandPinky2
                                            {
                                                OFFSET -2.835 0.000 0.000
                                                CHANNELS 6 Xposition Yposition Zposition Yrotation Xrotation Zrotation
                                                JOINT RightHandPinky3
                                                {
                                                    OFFSET -1.792 0.000 0.000
                                                    CHANNELS 6 Xposition Yposition Zposition Yrotation Xrotation Zrotation
                                                    End Site
                                                    {
                                                        OFFSET -1.692 0.000 0.000
                                                    }
                                                }
                                            }
                                        }
                                    }
                                }
                            }
                        }
                    }
                    JOINT LeftShoulder
                    {
                        OFFSET 3.275 7.142 0.000
                        CHANNELS 6 Xposition Yposition Zposition Yrotation Xrotation Zrotation
                        JOINT LeftArm
                        {
                            OFFSET 13.100 0.000 0.000
                            CHANNELS 6 Xposition Yposition Zposition Yrotation Xrotation Zrotation
                            JOINT LeftForeArm
                            {
                                OFFSET 27.250 0.000 0.000
                                CHANNELS 6 Xposition Yposition Zposition Yrotation Xrotation Zrotation
                                JOINT LeftHand
                                {
                                    OFFSET 26.750 0.000 0.000
                                    CHANNELS 6 Xposition Yposition Zposition Yrotation Xrotation Zrotation
                                    JOINT LeftHandThumb1
                                    {
                                        OFFSET 2.560 0.196 3.210
                                        CHANNELS 6 Xposition Yposition Zposition Yrotation Xrotation Zrotation
                                        JOINT LeftHandThumb2
                                        {
                                            OFFSET 3.788 0.000 0.000
                                            CHANNELS 6 Xposition Yposition Zposition Yrotation Xrotation Zrotation
                                            JOINT LeftHandThumb3
                                            {
                                                OFFSET 2.631 0.000 0.000
                                                CHANNELS 6 Xposition Yposition Zposition Yrotation Xrotation Zrotation
                                                End Site
                                                {
                                                    OFFSET 2.256 0.000 0.000
                                                }
                                            }
                                        }
                                    }
                                    JOINT LeftInHandIndex
                                    {
                                        OFFSET 3.316 0.523 2.035
                                        CHANNELS 6 Xposition Yposition Zposition Yrotation Xrotation Zrotation
                                        JOINT LeftHandIndex1
                                        {
                                            OFFSET 5.366 -0.094 1.028
                                            CHANNELS 6 Xposition Yposition Zposition Yrotation Xrotation Zrotation
                                            JOINT LeftHandIndex2
                                            {
                                                OFFSET 3.723 0.000 0.000
                                                CHANNELS 6 Xposition Yposition Zposition Yrotation Xrotation Zrotation
                                                JOINT LeftHandIndex3
                                                {
                                                    OFFSET 2.111 0.000 0.000
                                                    CHANNELS 6 Xposition Yposition Zposition Yrotation Xrotation Zrotation
                                                    End Site
                                                    {
                                                        OFFSET 1.857 0.000 0.000
                                                    }
                                                }
                                            }
                                        }
                                    }
                                    JOINT LeftInHandMiddle
                                    {
                                        OFFSET 3.479 0.532 0.778
                                        CHANNELS 6 Xposition Yposition Zposition Yrotation Xrotation Zrotation
                                        JOINT LeftHandMiddle1
                                        {
                                            OFFSET 5.322 -0.086 0.323
                                            CHANNELS 6 Xposition Yposition Zposition Yrotation Xrotation Zrotation
                                            JOINT LeftHandMiddle2
                                            {
                                                OFFSET 4.062 0.000 0.000
                                                CHANNELS 6 Xposition Yposition Zposition Yrotation Xrotation Zrotation
                                                JOINT LeftHandMiddle3
                                                {
                                                    OFFSET 2.547 0.000 0.000
                                                    CHANNELS 6 Xposition Yposition Zposition Yrotation Xrotation Zrotation
                                                    End Site
                                                    {
                                                        OFFSET 2.031 0.000 0.000
                                                    }
                                                }
                                            }
                                        }
                                    }
                                    JOINT LeftInHandRing
                                    {
                                        OFFSET 3.461 0.553 -0.133
                                        CHANNELS 6 Xposition Yposition Zposition Yrotation Xrotation Zrotation
                                        JOINT LeftHandRing1
                                        {
                                            OFFSET 4.767 -0.023 -0.493
                                            CHANNELS 6 Xposition Yposition Zposition Yrotation Xrotation Zrotation
                                            JOINT LeftHandRing2
                                            {
                                                OFFSET 3.541 0.000 0.000
                                                CHANNELS 6 Xposition Yposition Zposition Yrotation Xrotation Zrotation
                                                JOINT LeftHandRing3
                                                {
                                                    OFFSET 2.456 0.000 0.000
                                                    CHANNELS 6 Xposition Yposition Zposition Yrotation Xrotation Zrotation
                                                    End Site
                                                    {
                                                        OFFSET 1.910 0.000 0.000
                                                    }
                                                }
                                            }
                                        }
                                    }
                                    JOINT LeftInHandPinky
                                    {
                                        OFFSET 3.251 0.483 -1.236
                                        CHANNELS 6 Xposition Yposition Zposition Yrotation Xrotation Zrotation
                                        JOINT LeftHandPinky1
                                        {
                                            OFFSET 4.259 -0.023 -1.122
                                            CHANNELS 6 Xposition Yposition Zposition Yrotation Xrotation Zrotation
                                            JOINT LeftHandPinky2
                                            {
                                                OFFSET 2.835 0.000 0.000
                                                CHANNELS 6 Xposition Yposition Zposition Yrotation Xrotation Zrotation
                                                JOINT LeftHandPinky3
                                                {
                                                    OFFSET 1.792 0.000 0.000
                                                    CHANNELS 6 Xposition Yposition Zposition Yrotation Xrotation Zrotation
                                                    End Site
                                                    {
                                                        OFFSET 1.692 0.000 0.000
                                                    }
                                                }
                                            }
                                        }
                                    }
                                }
                            }
                        }
                    }
                }
            }
        }
    }
}
MOTION

Frames: 2
Frame Time: 0.017
3.76 96.96 30.89 1.90 2.48 -0.08 -9.65 -1.64 -0.02 -8.10 -1.47 -1.67 0.03 -41.48 0.00 -2.56 -1.25 -0.54 0.33 -43.11 -1.07 20.07 0.00 5.58 9.66 -1.65 -0.01 -3.81 -0.97 0.12 0.06 -43.12 -0.03 3.11 -3.20 1.58 -0.34 -43.14 1.17 -86.20 -0.39 -1.20 0.01 16.39 0.05 8.83 10.07 8.39 0.00 10.02 0.02 2.31 2.49 1.94 0.01 10.44 0.02 4.04 3.88 3.25 0.01 10.02 0.02 -0.61 0.66 0.21 -0.02 10.71 -0.01 -0.61 0.67 0.21 -0.01 9.72 0.00 -10.70 12.64 2.73 -3.27 7.13 0.02 -5.10 -1.24 -2.68 -13.05 -0.04 -0.03 28.65 -9.85 63.10 -27.23 -0.12 0.01 51.96 64.84 0.34 -26.73 -0.05 0.08 12.61 18.41 -3.77 -2.56 0.20 3.21 38.18 -0.00 58.92 -3.79 0.00 0.00 -10.52 -0.00 11.46 -2.63 0.00 0.00 -16.71 -0.00 0.00 -3.32 0.52 2.03 0.00 -0.00 0.00 -5.37 -0.09 1.03 15.00 -0.00 37.18 -3.72 0.00 0.00 0.00 -0.00 -6.20 -2.11 0.00 0.00 0.00 -0.00 -3.10 -3.48 0.53 0.78 0.00 -0.00 0.00 -5.32 -0.09 0.32 0.00 -0.00 24.13 -4.06 0.00 0.00 0.00 -0.00 24.13 -2.55 0.00 0.00 0.00 -0.00 24.13 -3.46 0.55 -0.13 0.00 -0.00 0.00 -4.77 -0.02 -0.49 -15.00 -0.00 51.83 -3.54 0.00 0.00 0.00 -0.00 51.83 -2.46 0.00 0.00 0.00 -0.00 51.83 -3.25 0.48 -1.24 0.00 -0.00 0.00 -4.26 -0.02 -1.12 -25.00 -0.00 98.30 -2.84 0.00 0.00 0.00 -0.00 98.30 -1.79 0.00 0.00 0.00 -0.00 98.30 3.28 7.14 0.01 -9.83 1.06 -12.79 13.11 -0.02 -0.02 -34.84 -13.72 -73.38 27.26 -0.01 -0.03 -39.39 43.53 -1.08 26.76 -0.03 -0.03 9.90 -0.22 17.09 2.56 0.20 3.21 -56.93 -0.00 -65.69 3.79 0.00 0.00 16.57 -0.00 -28.30 2.63 0.00 0.00 49.13 -0.00 0.00 3.32 0.52 2.03 0.00 -0.00 0.00 5.37 -0.09 1.03 -15.00 -0.00 -8.61 3.72 0.00 0.00 0.00 -0.00 -24.11 2.11 0.00 0.00 0.00 -0.00 -12.05 3.48 0.53 0.78 0.00 -0.00 0.00 5.32 -0.09 0.32 0.00 -0.00 -29.30 4.06 0.00 0.00 0.00 -0.00 -29.30 2.55 0.00 0.00 0.00 -0.00 -29.30 3.46 0.55 -0.13 0.00 -0.00 0.00 4.77 -0.02 -0.49 15.00 -0.00 -45.88 3.54 0.00 0.00 0.00 -0.00 -45.88 2.46 0.00 0.00 0.00 -0.00 -45.88 3.25 0.48 -1.24 0.00 -0.00 0.00 4.26 -0.02 -1.12 25.00 -0.00 -45.80 2.84 0.00 0.00 0.00 -0.00 -45.80 1.79 0.00 0.00 0.00 -0.00 -45.80 
3.76 96.95 30.92 1.97 2.43 -0.08 -9.64 -1.63 -0.00 -8.20 -1.39 -1.71 0.04 -41.48 0.03 -2.58 -1.23 -0.54 0.35 -43.11 -1.07 20.11 -0.05 5.63 9.67 -1.65 -0.01 -3.96 -0.94 0.11 0.06 -43.12 -0.03 3.19 -3.18 1.58 -0.33 -43.14 1.16 -86.29 -0.38 -1.19 0.02 16.39 0.05 8.79 10.10 8.34 0.00 10.02 0.02 2.30 2.50 1.93 0.01 10.44 0.02 4.02 3.89 3.24 0.01 10.02 0.02 -0.61 0.66 0.21 -0.02 10.71 -0.01 -0.61 0.66 0.21 -0.01 9.72 0.01 -10.69 12.60 2.77 -3.27 7.13 0.02 -5.06 -1.11 -2.82 -13.14 -0.04 -0.10 28.56 -10.06 63.24 -27.22 -0.07 -0.09 52.16 65.32 0.58 -26.73 -0.06 0.07 12.30 18.42 -3.52 -2.56 0.20 3.21 38.23 -0.00 58.98 -3.79 0.00 0.00 -10.42 -0.00 11.52 -2.63 0.00 0.00 -16.66 -0.00 0.00 -3.32 0.52 2.03 0.00 -0.00 0.00 -5.37 -0.09 1.03 15.00 -0.00 37.16 -3.72 0.00 0.00 0.00 -0.00 -6.60 -2.11 0.00 0.00 0.00 -0.00 -3.30 -3.48 0.53 0.78 0.00 -0.00 0.00 -5.32 -0.09 0.32 0.00 -0.00 23.88 -4.06 0.00 0.00 0.00 -0.00 23.88 -2.55 0.00 0.00 0.00 -0.00 23.88 -3.46 0.55 -0.13 0.00 -0.00 0.00 -4.77 -0.02 -0.49 -15.00 -0.00 51.78 -3.54 0.00 0.00 0.00 -0.00 51.78 -2.46 0.00 0.00 0.00 -0.00 51.78 -3.25 0.48 -1.24 0.00 -0.00 0.00 -4.26 -0.02 -1.12 -25.00 -0.00 98.16 -2.84 0.00 0.00 0.00 -0.00 98.16 -1.79 0.00 0.00 0.00 -0.00 98.16 3.28 7.13 0.01 -9.84 1.07 -12.70 13.11 -0.02 -0.02 -34.88 -13.77 -73.38 27.26 -0.01 -0.04 -39.37 43.52 -1.08 26.76 -0.03 -0.04 9.90 -0.21 17.07 2.56 0.20 3.21 -56.92 -0.00 -65.73 3.79 0.00 0.00 16.59 -0.00 -28.33 2.63 0.00 0.00 49.04 -0.00 0.00 3.32 0.52 2.03 0.00 -0.00 0.00 5.37 -0.09 1.03 -15.00 -0.00 -8.61 3.72 0.00 0.00 0.00 -0.00 -24.09 2.11 0.00 0.00 0.00 -0.00 -12.05 3.48 0.53 0.78 0.00 -0.00 0.00 5.32 -0.09 0.32 0.00 -0.00 -29.30 4.06 0.00 0.00 0.00 -0.00 -29.30 2.55 0.00 0.00 0.00 -0.00 -29.30 3.46 0.55 -0.13 0.00 -0.00 0.00 4.77 -0.02 -0.49 15.00 -0.00 -45.88 3.54 0.00 0.00 0.00 -0.00 -45.88 2.46 0.00 0.00 0.00 -0.00 -45.88 3.25 0.48 -1.24 0.00 -0.00 0.00 4.26 -0.02 -1.12 25.00 -0.00 -45.81 2.84 0.00 0.00 0.00 -0.00 -45.81 1.79 0.00 0.00 0.00 -0.00 -45.81 
